<svg id="Layer_1" enable-background="new 0 0 34 34" height="512" viewBox="0 0 34 34" width="512" xmlns="http://www.w3.org/2000/svg"><g><g><path d="m16.8 14c-2 0-3.8 1.2-4.6 3h9.2c-.8-1.8-2.5-3-4.6-3z"/></g><g><circle cx="16.8" cy="10" r="2"/></g><g><path d="m26.2 1h-18.4c-2.1 0-3.8 1.7-3.8 3.8v24.4c0 2.1 1.7 3.8 3.8 3.8h18.4c2.1 0 3.8-1.7 3.8-3.8v-24.4c0-2.1-1.7-3.8-3.8-3.8zm-12.3 11.7c-.6-.7-1-1.6-1-2.7 0-2.2 1.8-4 4-4s4 1.8 4 4c0 1-.4 1.9-1 2.7 2 1 3.5 2.9 3.9 5.2 0 .3 0 .6-.2.8-.3.2-.6.3-.9.3h-11.8c-.3 0-.6-.1-.8-.4-.2-.2-.3-.5-.2-.8.4-2.3 1.9-4.2 4-5.1zm11.1 15.3h-16c-.6 0-1-.4-1-1s.4-1 1-1h16c.6 0 1 .4 1 1s-.4 1-1 1zm0-4h-16c-.6 0-1-.4-1-1s.4-1 1-1h16c.6 0 1 .4 1 1s-.4 1-1 1z"/></g></g></svg>