<svg fill="none" height="64" viewBox="0 0 64 64" width="64" xmlns="http://www.w3.org/2000/svg"><g fill="rgb(0,0,0)"><path d="m28 32c0 .567-.2406 1.1073-.6621 1.4866l-10 9c-.821.7389-2.0856.6724-2.8245-.1487-.7389-.821-.6723-2.0856.1487-2.8245l8.3482-7.5134-8.3482-7.5134c-.821-.7389-.8876-2.0035-.1487-2.8245s2.0035-.8876 2.8245-.1487l10 9c.4215.3793.6621.9196.6621 1.4866z"/><path d="m48 43c1.1046 0 2-.8954 2-2s-.8954-2-2-2h-16c-1.1046 0-2 .8954-2 2s.8954 2 2 2z"/><path clip-rule="evenodd" d="m2 18c0-8.83656 7.16344-16 16-16h28c8.8366 0 16 7.16344 16 16v28c0 8.8366-7.1634 16-16 16h-28c-8.83656 0-16-7.1634-16-16zm16-12c-6.6274 0-12 5.3726-12 12v28c0 6.6274 5.3726 12 12 12h28c6.6274 0 12-5.3726 12-12v-28c0-6.6274-5.3726-12-12-12z" fill-rule="evenodd"/></g></svg>